<!-- Generated by IcoMoon.io -->
<svg version="1.1" xmlns="http://www.w3.org/2000/svg" width="54" height="32" viewBox="0 0 54 32">
<title>svg-4</title>
<path d="M43.974 5.573c-0.075-0.112-0.176-0.204-0.294-0.267s-0.251-0.097-0.386-0.097c-0.135 0-0.267 0.033-0.386 0.097s-0.22 0.155-0.294 0.267l-4.903 7.354c-0.082 0.123-0.129 0.266-0.136 0.414s0.026 0.294 0.096 0.425c0.070 0.13 0.174 0.239 0.3 0.315s0.272 0.116 0.42 0.116h0.16l-3.304 5.287c-0.077 0.124-0.12 0.266-0.124 0.412s0.031 0.29 0.102 0.418 0.174 0.234 0.3 0.308c0.126 0.074 0.269 0.113 0.415 0.113h0.312l-2.677 5.354c-0.062 0.125-0.092 0.263-0.086 0.402s0.048 0.275 0.121 0.393c0.073 0.119 0.176 0.216 0.297 0.284s0.259 0.104 0.398 0.104h7.354v4.086h3.268v-4.086h7.354c0.139 0 0.276-0.036 0.398-0.104s0.224-0.166 0.297-0.284c0.073-0.119 0.115-0.254 0.121-0.393s-0.023-0.278-0.086-0.402l-2.675-5.354h0.312c0.146 0 0.289-0.039 0.415-0.113s0.229-0.18 0.3-0.308c0.071-0.128 0.106-0.272 0.102-0.418s-0.047-0.288-0.124-0.412l-3.306-5.287h0.16c0.148-0 0.293-0.040 0.42-0.116s0.231-0.185 0.3-0.315c0.070-0.13 0.103-0.277 0.096-0.425s-0.054-0.291-0.136-0.414l-4.903-7.354z"></path>
<path d="M29.767 14.067v14.653c-0 0.46-0.122 0.91-0.353 1.305s-0.561 0.718-0.957 0.936c-0.358 0.198-0.76 0.3-1.168 0.294h-7.451c-0.329 0-0.644-0.134-0.877-0.371s-0.363-0.56-0.363-0.897v-7.608c0-0.336-0.131-0.659-0.363-0.897s-0.548-0.371-0.877-0.371h-4.961c-0.329 0-0.644 0.134-0.877 0.371s-0.363 0.56-0.363 0.897v7.608c0 0.336-0.131 0.659-0.363 0.897s-0.548 0.371-0.877 0.371h-7.436c-0.352 0.001-0.699-0.075-1.020-0.223s-0.607-0.364-0.839-0.634c-0.408-0.482-0.629-1.1-0.622-1.737v-14.595c0-0.353 0.073-0.703 0.212-1.026s0.344-0.613 0.6-0.851l12.402-11.527c0.456-0.427 1.051-0.663 1.669-0.663s1.213 0.236 1.669 0.663l12.404 11.527c0.255 0.238 0.46 0.528 0.599 0.851s0.212 0.672 0.212 1.026z"></path>
</svg>
