<!-- Generated by IcoMoon.io -->
<svg version="1.1" xmlns="http://www.w3.org/2000/svg" width="42" height="32" viewBox="0 0 42 32">
<title>svg-8</title>
<path d="M17.502 0.587l-7.242 7.413h-8.307c-1.079 0-1.953 0.895-1.953 2v12c0 1.104 0.874 2 1.953 2h8.307l7.242 7.413c1.223 1.252 3.335 0.372 3.335-1.414v-27.997c0-1.788-2.113-2.665-3.335-1.414zM37.575 16l3.715-3.803c0.513-0.525 0.513-1.377 0-1.902l-1.857-1.902c-0.513-0.525-1.345-0.525-1.857 0l-3.715 3.803-3.715-3.803c-0.513-0.525-1.345-0.525-1.857 0l-1.857 1.902c-0.513 0.525-0.513 1.377 0 1.902l3.715 3.803-3.714 3.803c-0.513 0.525-0.513 1.377 0 1.902l1.857 1.902c0.513 0.525 1.345 0.525 1.857 0l3.714-3.803 3.715 3.803c0.513 0.525 1.345 0.525 1.857 0l1.857-1.902c0.513-0.525 0.513-1.377 0-1.902l-3.715-3.803z"></path>
</svg>
