<!-- Generated by IcoMoon.io -->
<svg version="1.1" xmlns="http://www.w3.org/2000/svg" width="29" height="32" viewBox="0 0 29 32">
<title>svg-2</title>
<path d="M27.621 22.2l-2.46-1.438 2.14-0.581c0.527-0.144 0.841-0.694 0.697-1.225l-0.257-0.969c-0.138-0.531-0.684-0.85-1.211-0.706l-5.002 1.356-4.506-2.637 4.512-2.637 5.002 1.356c0.527 0.144 1.067-0.175 1.211-0.706l0.257-0.969c0.138-0.531-0.169-1.081-0.697-1.225l-2.14-0.581 2.46-1.438c0.471-0.275 0.634-0.887 0.364-1.369l-0.496-0.869c-0.27-0.481-0.879-0.644-1.349-0.369l-2.46 1.438 0.571-2.169c0.138-0.531-0.169-1.081-0.697-1.225l-0.954-0.256c-0.527-0.144-1.067 0.175-1.211 0.706l-1.337 5.062-4.512 2.637v-5.281l3.659-3.706c0.383-0.388 0.383-1.025 0-1.413l-0.697-0.706c-0.383-0.387-1.010-0.387-1.393 0l-1.563 1.587v-2.869c0-0.55-0.439-1-0.985-1h-0.985c-0.546 0-0.985 0.45-0.985 1v2.881l-1.563-1.587c-0.383-0.387-1.010-0.387-1.393 0l-0.722 0.706c-0.383 0.388-0.383 1.025 0 1.412l3.659 3.706v5.281l-4.512-2.637-1.337-5.063c-0.138-0.531-0.684-0.85-1.211-0.706l-0.954 0.256c-0.527 0.144-0.841 0.694-0.697 1.225l0.571 2.169-2.46-1.438c-0.471-0.275-1.073-0.112-1.349 0.369l-0.496 0.869c-0.27 0.481-0.113 1.088 0.364 1.369l2.46 1.438-2.14 0.569c-0.527 0.144-0.841 0.694-0.697 1.225l0.257 0.969c0.138 0.531 0.684 0.85 1.211 0.706l5.002-1.356 4.512 2.638-4.512 2.637-5.002-1.356c-0.527-0.144-1.067 0.175-1.211 0.706l-0.257 0.969c-0.138 0.531 0.169 1.081 0.697 1.225l2.14 0.581-2.46 1.438c-0.471 0.275-0.634 0.887-0.364 1.369l0.496 0.869c0.27 0.481 0.879 0.644 1.349 0.369l2.46-1.438-0.571 2.169c-0.138 0.531 0.169 1.081 0.697 1.225l0.954 0.256c0.527 0.144 1.067-0.175 1.211-0.706l1.337-5.063 4.512-2.637v5.281l-3.659 3.706c-0.383 0.387-0.383 1.025 0 1.413l0.697 0.706c0.383 0.387 1.010 0.387 1.393 0l1.563-1.587v2.869c0 0.55 0.439 1 0.985 1h0.985c0.546 0 0.985-0.45 0.985-1v-2.881l1.563 1.587c0.383 0.388 1.010 0.388 1.393 0l0.697-0.706c0.383-0.387 0.383-1.025 0-1.413l-3.659-3.706v-5.281l4.512 2.637 1.337 5.063c0.138 0.531 0.684 0.85 1.211 0.706l0.954-0.256c0.527-0.144 0.841-0.694 0.697-1.225l-0.571-2.169 2.46 1.438c0.471 0.275 1.073 0.112 1.349-0.369l0.496-0.869c0.289-0.469 0.132-1.081-0.345-1.356z"></path>
</svg>
