<!-- Generated by IcoMoon.io -->
<svg version="1.1" xmlns="http://www.w3.org/2000/svg" width="31" height="32" viewBox="0 0 31 32">
<title>svg-3</title>
<path d="M15.72 9.825c-3.248 0-5.895 2.647-5.895 5.895s2.647 5.895 5.895 5.895c3.248 0 5.895-2.647 5.895-5.895s-2.647-5.895-5.895-5.895zM30.851 14.768l-5.815-2.905 2.057-6.165c0.276-0.835-0.516-1.627-1.345-1.345l-6.165 2.057-2.911-5.821c-0.393-0.786-1.511-0.786-1.904 0l-2.905 5.815-6.171-2.057c-0.835-0.276-1.627 0.516-1.345 1.345l2.057 6.165-5.815 2.911c-0.786 0.393-0.786 1.511 0 1.904l5.815 2.904-2.057 6.171c-0.276 0.835 0.516 1.627 1.345 1.345l6.165-2.057 2.905 5.815c0.393 0.786 1.511 0.786 1.904 0l2.905-5.815 6.165 2.057c0.835 0.276 1.627-0.516 1.345-1.345l-2.057-6.165 5.815-2.905c0.798-0.399 0.798-1.517 0.012-1.91zM21.277 21.277c-3.064 3.064-8.050 3.064-11.115 0s-3.064-8.050 0-11.115c3.064-3.064 8.050-3.064 11.115 0s3.064 8.050 0 11.115z"></path>
</svg>
