<!-- Generated by IcoMoon.io -->
<svg version="1.1" xmlns="http://www.w3.org/2000/svg" width="31" height="32" viewBox="0 0 31 32">
<title>svg-6</title>
<path d="M10.868 5c-3.269 0-5.928 2.691-5.928 6 0 0.553 0.442 1 0.988 1s0.988-0.448 0.988-1c0-2.206 1.773-4 3.952-4 0.546 0 0.988-0.448 0.988-1s-0.442-1-0.988-1zM5.932 28.699c0 0.197 0.057 0.389 0.166 0.552l1.513 2.303c0.183 0.279 0.492 0.446 0.823 0.446h4.869c0.331 0 0.64-0.168 0.823-0.446l1.513-2.303c0.107-0.164 0.165-0.356 0.166-0.552l0.003-2.699h-9.877l0.002 2.699zM10.868 0c-6.316 0-10.868 5.186-10.868 11 0 2.773 1.016 5.303 2.69 7.236 1.028 1.187 2.639 3.675 3.237 5.76v0.004h2.964v-0.008c-0.001-0.298-0.044-0.594-0.133-0.879-0.345-1.113-1.409-4.048-3.839-6.855-1.268-1.464-1.946-3.322-1.952-5.259-0.012-4.603 3.685-8 7.901-8 4.358 0 7.904 3.589 7.904 8 0 1.936-0.694 3.803-1.954 5.259-2.415 2.788-3.484 5.717-3.835 6.841-0.091 0.289-0.137 0.59-0.137 0.894v0.006h2.964v-0.003c0.598-2.086 2.209-4.574 3.237-5.76 1.673-1.934 2.689-4.464 2.689-7.237 0-6.075-4.866-11-10.868-11z"></path>
<path d="M30.136 16.508c-0.123-0.265-0.475-0.276-0.623-0.025-0.682 1.144-1.904 1.857-3.3 1.857h-1.761c-2.334 0-4.227 1.825-4.227 4.075 0 0.149 0.018 0.291 0.033 0.435 1.404-0.97 3.432-1.793 6.307-1.793 0.194 0 0.352 0.153 0.352 0.34s-0.159 0.34-0.352 0.34c-5.535 0-7.881 3.271-8.401 4.499-0.145 0.346 0.026 0.741 0.385 0.883 0.361 0.144 0.77-0.023 0.92-0.367 0.033-0.076 0.46-1.017 1.583-1.923 0.713 0.932 2.069 1.821 3.85 1.638 3.456-0.242 5.889-3.23 5.889-6.889 0-1.065-0.238-2.169-0.656-3.069z"></path>
</svg>
