<!-- Generated by IcoMoon.io -->
<svg version="1.1" xmlns="http://www.w3.org/2000/svg" width="40" height="32" viewBox="0 0 40 32">
<title>svg-1</title>
<path stroke-linejoin="round" stroke-linecap="butt" stroke-miterlimit="4" stroke-width="0.8205" stroke="#000" fill="#000" d="M14.724 0.821c0-0.227-0.184-0.41-0.41-0.41h-13.493c-0.227 0-0.41 0.184-0.41 0.41v8.096c0 0.227 0.184 0.41 0.41 0.41h2.699c0.227 0 0.41-0.184 0.41-0.41v-4.987h10.384c0.227 0 0.41-0.184 0.41-0.41v-2.699z"></path>
<path stroke-linejoin="round" stroke-linecap="butt" stroke-miterlimit="4" stroke-width="0.8205" stroke="#000" fill="#000" d="M25.108 0.41c-0.227 0-0.41 0.184-0.41 0.41v2.699c0 0.227 0.184 0.41 0.41 0.41h10.384v4.987c0 0.227 0.184 0.41 0.41 0.41h2.699c0.227 0 0.41-0.184 0.41-0.41v-8.096c0-0.227-0.184-0.41-0.41-0.41h-13.493z"></path>
<path stroke-linejoin="round" stroke-linecap="butt" stroke-miterlimit="4" stroke-width="0.8205" stroke="#000" fill="#000" d="M14.313 31.59c0.227 0 0.41-0.184 0.41-0.41v-2.698c0-0.227-0.184-0.41-0.41-0.41h-10.384v-4.987c0-0.227-0.184-0.41-0.41-0.41h-2.699c-0.227 0-0.41 0.184-0.41 0.41v8.096c0 0.227 0.184 0.41 0.41 0.41h13.493z"></path>
<path stroke-linejoin="round" stroke-linecap="butt" stroke-miterlimit="4" stroke-width="0.8205" stroke="#000" fill="#000" d="M24.697 31.179c0 0.227 0.184 0.41 0.41 0.41h13.493c0.227 0 0.41-0.184 0.41-0.41v-8.096c0-0.227-0.184-0.41-0.41-0.41h-2.699c-0.227 0-0.41 0.184-0.41 0.41v4.987h-10.384c-0.227 0-0.41 0.184-0.41 0.41v2.698z"></path>
</svg>
