<!-- Generated by IcoMoon.io -->
<svg version="1.1" xmlns="http://www.w3.org/2000/svg" width="30" height="32" viewBox="0 0 30 32">
<title>svg-10</title>
<path d="M27.888 5.23l-11.886-5c-0.362-0.152-0.75-0.23-1.142-0.23s-0.78 0.078-1.142 0.23l-11.886 5c-1.108 0.463-1.832 1.556-1.832 2.769 0 12.407 7.088 20.983 13.712 23.771 0.73 0.306 1.554 0.306 2.284 0 5.305-2.232 13.718-9.938 13.718-23.771 0-1.213-0.724-2.306-1.826-2.769zM14.863 27.895l-0.006-23.815 10.889 4.582c-0.204 9.463-5.082 16.32-10.883 19.233z"></path>
</svg>
