<!-- Generated by IcoMoon.io -->
<svg version="1.1" xmlns="http://www.w3.org/2000/svg" width="44" height="32" viewBox="0 0 44 32">
<title>svg-5</title>
<path d="M33.719 28.656c1.646 0 2.975-1.324 2.975-2.964s-1.329-2.964-2.975-2.964c-1.646 0-2.975 1.324-2.975 2.964s1.329 2.964 2.975 2.964zM36.694 10.87h-4.959v4.941h8.846l-3.888-4.941zM9.917 28.656c1.646 0 2.975-1.324 2.975-2.964s-1.329-2.964-2.975-2.964c-1.646 0-2.975 1.324-2.975 2.964s1.329 2.964 2.975 2.964zM37.686 7.905l5.95 7.905v9.881h-3.967c0 3.281-2.658 5.929-5.95 5.929s-5.95-2.648-5.95-5.929h-11.901c0 3.281-2.658 5.929-5.95 5.929s-5.95-2.648-5.95-5.929h-3.967v-21.739c0-2.194 1.765-3.953 3.967-3.953h27.769v7.905h5.95zM3.967 3.953v17.787h1.507c1.091-1.206 2.678-1.976 4.443-1.976s3.352 0.771 4.443 1.976h13.408v-17.787h-23.802zM7.934 12.846l2.975-2.964 2.975 2.964 6.942-6.917 2.975 2.964-9.917 9.881-5.95-5.929z"></path>
</svg>
